# xmcd CD database file
#
# Track frame offsets:
#	150
#	16958
#	31258
#	49160
#	65538
#	80047
#	98858
#	116946
#	137303
#	153624
#	172293
#	190643
#	203157
#	221936
#	242006
#	259935
#	282987
#	303446
#
# Disc length: 4267 seconds
#
# Revision: 1
# Processed by: cddbd v1.5.2PL0 Copyright (c) Steve Scherf et al.
# Submitted via: CDex 1.70beta2
#
DISCID=0d10a912
DTITLE=Various Artist - Jazz Коктейль Volume 5
DYEAR=2006
DGENRE=Jazz
TTITLE0=Marvin Gaye - Inner City Blues (Makes Me Wanna Holler)
TTITLE1=Silje Nergaard - Dream A Little Dream Of Me
TTITLE2=Freddie Ravel - Sunny Side Up
TTITLE3=Nina Simone - My Baby Just Cares For Me
TTITLE4=Richard Bona - Bona Petit
TTITLE5=Incognito - It Ain't Easy
TTITLE6=Indo Aminata - Leo Leo
TTITLE7=Chris Botti - Irresistible Bliss
TTITLE8=Ketama - Paren El Mundo
TTITLE9=Mino Cinelu - Cold Is The Night
TTITLE10=Marc Antoine - Madrid
TTITLE11=Billie Holiday - If The Moon Turns Green
TTITLE12=Philipp Weiss - The Touch Of Your Lips
TTITLE13=De-Phazz - On Line
TTITLE14=Diana Krall - Stop This World
TTITLE15=Stan Getz - But Beautiful
TTITLE16=Ella Fitzgerald - Someone To Watch Over Me
TTITLE17=Dusty Springfield - The Look Of Love
EXTD=YEAR: 2006
EXTT0=
EXTT1=
EXTT2=
EXTT3=
EXTT4=
EXTT5=
EXTT6=
EXTT7=
EXTT8=
EXTT9=
EXTT10=
EXTT11=
EXTT12=
EXTT13=
EXTT14=
EXTT15=
EXTT16=
EXTT17=
PLAYORDER=
